<svg id="Group_1" data-name="Group 1" xmlns="http://www.w3.org/2000/svg" width="24" height="24" viewBox="0 0 24 24">
  <g id="vuesax_linear_message-notif" data-name="vuesax/linear/message-notif">
    <g id="message-notif">
      <path id="Vector" d="M20,8v3q0,6-6,6h-.5a1.014,1.014,0,0,0-.8.4l-1.5,2a1.421,1.421,0,0,1-2.4,0l-1.5-2a1.13,1.13,0,0,0-.8-.4H6c-4,0-6-1-6-6V6Q0,0,6,0h6" transform="translate(2 2)" fill="none" stroke="#babec6" stroke-linecap="round" stroke-linejoin="round" stroke-width="1.75"/>
      <path id="Vector-2" data-name="Vector" d="M5,2.5A2.5,2.5,0,1,1,2.5,0,2.5,2.5,0,0,1,5,2.5Z" transform="translate(17 2)" fill="none" stroke="#babec6" stroke-linecap="round" stroke-linejoin="round" stroke-width="1.75"/>
      <path id="Vector-3" data-name="Vector" d="M0,0H24V24H0Z" fill="none" opacity="0"/>
    </g>
  </g>
  <path id="Vector-4" data-name="Vector" d="M0,0H10" transform="translate(7 13)" fill="none" stroke="#babec6" stroke-linecap="round" stroke-linejoin="round" stroke-width="1.75"/>
  <path id="Vector-5" data-name="Vector" d="M0,0H6" transform="translate(7 8)" fill="none" stroke="#babec6" stroke-linecap="round" stroke-linejoin="round" stroke-width="1.75"/>
</svg>
